<svg id="visual" viewBox="0 0 900 450" width="900" height="450" xmlns="http://www.w3.org/2000/svg" xmlns:xlink="http://www.w3.org/1999/xlink" version="1.1"><rect x="0" y="0" width="900" height="450" fill="#001220"></rect><path d="M0 309L21.5 312.7C43 316.3 86 323.7 128.8 321.5C171.7 319.3 214.3 307.7 257.2 302.8C300 298 343 300 385.8 305C428.7 310 471.3 318 514.2 315.3C557 312.7 600 299.3 642.8 295.3C685.7 291.3 728.3 296.7 771.2 294.5C814 292.3 857 282.7 878.5 277.8L900 273L900 451L878.5 451C857 451 814 451 771.2 451C728.3 451 685.7 451 642.8 451C600 451 557 451 514.2 451C471.3 451 428.7 451 385.8 451C343 451 300 451 257.2 451C214.3 451 171.7 451 128.8 451C86 451 43 451 21.5 451L0 451Z" fill="#4a8d71"></path><path d="M0 303L21.5 303C43 303 86 303 128.8 304.8C171.7 306.7 214.3 310.3 257.2 319.7C300 329 343 344 385.8 347.5C428.7 351 471.3 343 514.2 332.5C557 322 600 309 642.8 310.5C685.7 312 728.3 328 771.2 335.5C814 343 857 342 878.5 341.5L900 341L900 451L878.5 451C857 451 814 451 771.2 451C728.3 451 685.7 451 642.8 451C600 451 557 451 514.2 451C471.3 451 428.7 451 385.8 451C343 451 300 451 257.2 451C214.3 451 171.7 451 128.8 451C86 451 43 451 21.5 451L0 451Z" fill="#408065"></path><path d="M0 376L21.5 375.5C43 375 86 374 128.8 373.2C171.7 372.3 214.3 371.7 257.2 371C300 370.3 343 369.7 385.8 365.5C428.7 361.3 471.3 353.7 514.2 355C557 356.3 600 366.7 642.8 372.8C685.7 379 728.3 381 771.2 376.3C814 371.7 857 360.3 878.5 354.7L900 349L900 451L878.5 451C857 451 814 451 771.2 451C728.3 451 685.7 451 642.8 451C600 451 557 451 514.2 451C471.3 451 428.7 451 385.8 451C343 451 300 451 257.2 451C214.3 451 171.7 451 128.8 451C86 451 43 451 21.5 451L0 451Z" fill="#377459"></path><path d="M0 389L21.5 386C43 383 86 377 128.8 374.5C171.7 372 214.3 373 257.2 374C300 375 343 376 385.8 380.7C428.7 385.3 471.3 393.7 514.2 396.2C557 398.7 600 395.3 642.8 390.2C685.7 385 728.3 378 771.2 374.2C814 370.3 857 369.7 878.5 369.3L900 369L900 451L878.5 451C857 451 814 451 771.2 451C728.3 451 685.7 451 642.8 451C600 451 557 451 514.2 451C471.3 451 428.7 451 385.8 451C343 451 300 451 257.2 451C214.3 451 171.7 451 128.8 451C86 451 43 451 21.5 451L0 451Z" fill="#2e674d"></path><path d="M0 414L21.5 411.8C43 409.7 86 405.3 128.8 402.3C171.7 399.3 214.3 397.7 257.2 397C300 396.3 343 396.7 385.8 399.5C428.7 402.3 471.3 407.7 514.2 413.2C557 418.7 600 424.3 642.8 423.3C685.7 422.3 728.3 414.7 771.2 411.3C814 408 857 409 878.5 409.5L900 410L900 451L878.5 451C857 451 814 451 771.2 451C728.3 451 685.7 451 642.8 451C600 451 557 451 514.2 451C471.3 451 428.7 451 385.8 451C343 451 300 451 257.2 451C214.3 451 171.7 451 128.8 451C86 451 43 451 21.5 451L0 451Z" fill="#255b42"></path></svg>